<?xml version="1.0" encoding="UTF-8"?>
<svg width="64" height="64" version="1.1" viewBox="0 0 64 64" xml:space="preserve" xmlns="http://www.w3.org/2000/svg">
<g transform="matrix(.23071 0 0 .23071 -228.38 -17.35)"><path style="fill:#00B4F0;" d="m1261.1 214c0-6.6-3.9-12.3-9.6-14.9-0.2-0.1-0.4-0.3-0.7-0.4l-105.5-57.1c-2.8-1.6-5.9-2.4-9.1-2.4-10.1 0-18.3 8.2-18.3 18.3 0 8.1 4 13.6 12.5 17.3l72.9 39.1-72.8 39.1c-8.6 3.8-12.6 9.3-12.6 17.4 0 10.1 8.2 18.3 18.3 18.3 3.2 0 6.3-0.8 9.1-2.4l105.5-57.1c0.2-0.1 0.3-0.2 0.5-0.3 5.8-2.4 9.8-8.2 9.8-14.9"/><path style="fill:#00B4F0;" d="m1104.4 213.9c0-8-6.5-14.6-14.6-14.6h-3.4-0.1c-7.6 0-13.8-6.2-13.8-13.9v-74.7c0-8.6-3-16.4-8.1-22.6-6.5-7.9-16.4-12.9-27.4-12.9l-27.3 0.1c-7.5 0-13.6 6.1-13.6 13.6 0 5.1 2.8 9.5 6.9 11.9 2 1.1 4.2 1.7 6.7 1.7h8.6c7.7 0 13.9 6.2 13.9 13.9v67.6c0 14.6 10.8 26.7 24.8 28.9 0 0 3.7 0.7 7.2 0.7v0.6c-3.5 0-7.2 0.7-7.2 0.7-14 2.1-24.8 14.2-24.8 28.9v67.6c0 7.7-6.2 13.9-13.9 13.9h-8.6c-2.4 0-4.7 0.6-6.7 1.7-4.1 2.3-6.9 6.8-6.9 11.9 0 7.5 6.1 13.6 13.6 13.6l27.3 0.1c11 0 20.9-5 27.4-12.9 5.1-6.1 8.1-14 8.1-22.6v-74.7c0-7.6 6.2-13.8 13.8-13.9h0.1 3.4c8 0 14.6-6.5 14.6-14.6v0 0z"/></g>
</svg>
