<?xml version="1.0" encoding="UTF-8"?>
<svg xmlns="http://www.w3.org/2000/svg" xmlns:xlink="http://www.w3.org/1999/xlink" width="16px" height="16px" viewBox="0 0 16 16" version="1.1">
		<path fill="#00B4F0"
			  d="M 15.640625 8.003906 C 15.640625 7.625 15.417969 7.296875 15.089844 7.144531 C 15.078125 7.140625 15.066406 7.128906 15.046875 7.121094 L 8.964844 3.828125 C 8.800781 3.738281 8.621094 3.691406 8.4375 3.691406 C 7.855469 3.691406 7.382812 4.164062 7.382812 4.746094 C 7.382812 5.214844 7.613281 5.53125 8.105469 5.746094 L 12.308594 8 L 8.109375 10.253906 C 7.613281 10.472656 7.382812 10.792969 7.382812 11.257812 C 7.382812 11.839844 7.855469 12.3125 8.4375 12.3125 C 8.621094 12.3125 8.800781 12.269531 8.964844 12.175781 L 15.046875 8.882812 C 15.058594 8.875 15.066406 8.871094 15.078125 8.863281 C 15.410156 8.726562 15.640625 8.390625 15.640625 8.003906 "/>
		<path fill="#00B4F0"
			  d="M 6.605469 8 C 6.605469 7.539062 6.230469 7.15625 5.761719 7.15625 L 5.558594 7.15625 C 5.121094 7.15625 4.765625 6.800781 4.765625 6.355469 L 4.765625 2.046875 C 4.765625 1.550781 4.589844 1.101562 4.296875 0.742188 C 3.921875 0.289062 3.351562 0 2.714844 0 L 1.140625 0.00390625 C 0.710938 0.00390625 0.359375 0.359375 0.359375 0.789062 C 0.359375 1.085938 0.519531 1.339844 0.753906 1.476562 C 0.871094 1.539062 0.996094 1.574219 1.140625 1.574219 L 1.636719 1.574219 C 2.082031 1.574219 2.441406 1.933594 2.441406 2.375 L 2.441406 6.273438 C 2.441406 7.117188 3.0625 7.816406 3.871094 7.941406 C 3.871094 7.941406 4.082031 7.980469 4.285156 7.980469 L 4.285156 8.015625 C 4.082031 8.015625 3.871094 8.058594 3.871094 8.058594 C 3.0625 8.179688 2.441406 8.875 2.441406 9.722656 L 2.441406 13.625 C 2.441406 14.066406 2.082031 14.425781 1.636719 14.425781 L 1.140625 14.425781 C 1.003906 14.425781 0.871094 14.460938 0.753906 14.523438 C 0.519531 14.65625 0.359375 14.914062 0.359375 15.210938 C 0.359375 15.640625 0.710938 15.992188 1.140625 15.992188 L 2.714844 16 C 3.351562 16 3.921875 15.710938 4.296875 15.253906 C 4.589844 14.902344 4.765625 14.449219 4.765625 13.953125 L 4.765625 9.644531 C 4.765625 9.207031 5.121094 8.847656 5.558594 8.84375 L 5.761719 8.84375 C 6.222656 8.84375 6.605469 8.46875 6.605469 8 Z M 6.605469 8 "/>
</svg>
